HIERARCHY
ROOT Hips
{
	OFFSET 0.0000 0.0000 0.0000
	CHANNELS 6 Xposition Yposition Zposition Zrotation Xrotation Yrotation
	JOINT Ab
	{
		OFFSET -0.0000 8.0846 -0.0000
		CHANNELS 3 Zrotation Xrotation Yrotation
		JOINT Chest
		{
			OFFSET -0.0000 25.7002 -0.0000
			CHANNELS 3 Zrotation Xrotation Yrotation
			JOINT Neck
			{
				OFFSET -0.0000 25.7002 0.0000
				CHANNELS 3 Zrotation Xrotation Yrotation
				JOINT Head
				{
					OFFSET -0.0000 10.7556 0.0000
					CHANNELS 3 Zrotation Xrotation Yrotation
					End Site
					{
						OFFSET -0.0000 16.6222 0.0000
					}
				}
			}
			JOINT LeftCollar
			{
				OFFSET -0.0000 25.7002 0.0000
				CHANNELS 3 Zrotation Xrotation Yrotation
				JOINT LeftShoulder
				{
					OFFSET 19.5556 -0.0000 0.0000
					CHANNELS 3 Zrotation Xrotation Yrotation
					JOINT LeftElbow
					{
						OFFSET 27.2833 0.0000 0.0000
						CHANNELS 3 Zrotation Xrotation Yrotation
						JOINT LeftWrist
						{
							OFFSET 23.7914 0.0000 0.0000
							CHANNELS 3 Zrotation Xrotation Yrotation
							End Site
							{
								OFFSET 0.0000 -14.6667 0.0000
							}
						}
					}
				}
			}
			JOINT RightCollar
			{
				OFFSET -0.0000 25.7002 0.0000
				CHANNELS 3 Zrotation Xrotation Yrotation
				JOINT RightShoulder
				{
					OFFSET -19.5556 0.0000 0.0000
					CHANNELS 3 Zrotation Xrotation Yrotation
					JOINT RightElbow
					{
						OFFSET -27.2833 0.0000 0.0000
						CHANNELS 3 Zrotation Xrotation Yrotation
						JOINT RightWrist
						{
							OFFSET -23.7914 0.0000 0.0000
							CHANNELS 3 Zrotation Xrotation Yrotation
							End Site
							{
								OFFSET -0.0000 -14.6667 0.0000
							}
						}
					}
				}
			}
		}
	}
	JOINT LeftHip
	{
		OFFSET 11.7333 0.0000 0.0000
		CHANNELS 3 Zrotation Xrotation Yrotation
		JOINT LeftKnee
		{
			OFFSET -0.0000 -39.5330 0.0000
			CHANNELS 3 Zrotation Xrotation Yrotation
			JOINT LeftAnkle
			{
				OFFSET -0.0000 -43.0504 0.0000
				CHANNELS 3 Zrotation Xrotation Yrotation
				End Site
				{
					OFFSET -0.0000 -4.8889 16.6222
				}
			}
		}
	}
	JOINT RightHip
	{
		OFFSET -11.7333 0.0000 0.0000
		CHANNELS 3 Zrotation Xrotation Yrotation
		JOINT RightKnee
		{
			OFFSET -0.0000 -39.5330 0.0000
			CHANNELS 3 Zrotation Xrotation Yrotation
			JOINT RightAnkle
			{
				OFFSET -0.0000 -43.0504 0.0000
				CHANNELS 3 Zrotation Xrotation Yrotation
				End Site
				{
					OFFSET -0.0000 -4.8889 16.6222
				}
			}
		}
	}
}
MOTION
Frames: 13
Frame Time: 0.010000
-14.2200 82.7902 149.4532 2.9118 345.1108 179.1930 3.0180 23.1200 349.3848 1.3561 4.7349 349.9265 21.8376 318.4767 15.6144 351.6346 5.4445 7.7207 338.0906 356.3778 18.3808 9.9895 17.8708 282.2390 64.7357 338.9729 327.9086 95.9857 10.5269 34.5843 19.2628 358.2572 348.9552 69.5404 35.2471 334.2692 348.1968 356.8225 32.3289 276.7460 341.0225 46.5308 5.7716 356.8443 358.5188 349.9176 38.1171 348.3690 10.1713 314.3392 41.3264 0.1722 291.9342 7.0321 29.3200 79.4834 322.5506 359.1091 334.9333 344.4286 
-14.0887 82.9203 147.3089 3.4173 345.2958 179.5734 4.1791 23.4112 348.7397 1.5751 4.0924 349.5367 22.4806 318.9223 16.4996 351.0763 6.2906 8.6410 338.2509 356.4019 18.6809 11.5478 17.5214 281.2168 67.8407 338.4578 329.8153 94.6047 9.1665 34.8478 18.4149 358.2371 348.0360 70.0264 35.5419 332.2469 348.3351 356.7992 31.4508 275.5994 339.0778 43.8087 5.5263 0.1732 357.6173 351.7883 34.8275 347.5705 7.5474 314.7738 40.2270 359.4280 291.5108 7.1806 36.2177 78.8579 316.4929 358.9830 335.2218 343.6092 
-13.8893 83.1251 145.2632 3.9180 344.8303 180.2241 5.2301 23.4810 348.2426 1.9663 2.7270 349.2775 23.7733 319.8458 17.3678 349.0506 6.8698 9.2381 338.9806 356.5675 18.7190 12.3733 18.1861 280.2496 70.8345 338.2914 331.3699 93.9710 8.3477 35.9403 17.3143 358.2593 347.2278 70.8782 34.7136 329.6067 348.8619 356.9572 31.7997 274.7860 339.0455 42.6594 5.2933 2.7480 356.5832 353.7873 31.2045 347.3487 4.7305 315.5193 39.1180 358.0958 290.4923 6.5281 42.1086 78.1093 310.7930 358.4182 336.0279 343.5380 
-13.6753 83.3361 143.2147 4.3181 344.2566 180.7642 5.8944 23.2105 347.6907 3.2297 1.8811 348.8272 23.3259 319.8551 17.6930 348.8577 8.0618 10.0831 339.1372 356.5840 18.5208 13.4653 18.4507 279.1699 73.4214 338.5278 333.0902 93.5701 8.1880 37.2131 15.9341 358.3395 346.5401 71.2230 33.8898 327.4443 348.9438 356.8519 32.8677 274.4664 339.2064 41.2860 5.0622 5.2176 355.6103 355.0814 27.8381 348.9212 2.2967 317.6083 37.5311 356.6691 289.3937 5.6566 46.3823 77.4413 307.4213 358.2460 337.5441 343.2165 
-13.4065 83.6450 141.1079 4.7679 343.2622 181.4362 6.5867 22.4805 347.1873 4.1953 0.9584 348.4450 24.4055 320.4495 18.7592 347.1188 9.3618 11.0711 339.2079 356.6284 18.3217 15.9476 18.3104 278.1117 76.2905 339.3130 336.0208 92.1146 6.4587 38.0481 14.3970 358.4630 345.9426 72.2182 33.4401 325.2735 348.6483 356.5714 34.0505 274.7440 339.2631 40.0673 5.2262 6.8086 354.7456 356.1187 25.1219 349.6284 1.1043 320.3007 37.1780 354.8054 288.3239 5.2615 50.8959 75.6626 302.9085 357.9566 339.1264 343.8453 
-13.1317 83.8825 138.8681 5.3115 342.6708 182.0789 7.6099 21.6758 346.4529 4.5349 0.6875 347.8596 25.0472 321.3533 19.3831 346.2675 9.6942 11.7304 339.9532 356.8219 18.0558 16.9165 18.2619 278.3445 78.7448 339.7560 336.9504 91.6424 8.0253 39.0925 13.3081 358.5335 345.8605 71.8744 32.3470 324.0609 349.8752 357.0734 35.0304 275.3739 338.8159 40.9928 5.8572 8.7434 354.2617 356.2100 22.4270 351.1587 0.4584 324.1907 37.1997 353.1337 287.8547 4.7795 53.6824 73.8177 300.4824 358.1750 340.6576 344.2351 
-12.6398 84.3739 136.9264 5.7452 340.7421 183.0643 7.8048 20.1560 346.0591 5.8268 0.1023 347.4230 25.4794 321.8859 19.9233 345.4227 10.0251 12.3826 340.3456 356.9023 17.8441 17.7167 17.7800 278.3440 80.3430 340.1428 337.6064 91.3474 7.8607 39.7056 12.1372 358.6221 345.2202 70.3498 32.1939 324.1294 352.1487 357.9978 36.2587 275.8828 338.5023 43.0095 6.5623 8.0722 355.7167 356.9205 21.3903 351.1531 0.0303 328.1971 36.3653 350.7541 286.3867 3.7625 54.7037 71.6690 299.2314 358.2065 341.9319 344.6484 
-12.3688 84.7136 134.9680 5.9202 338.8294 183.9164 8.4027 18.0869 345.4147 6.0356 0.2044 346.7206 26.2438 322.3158 20.6080 344.7205 10.0942 12.9529 340.7858 357.0061 17.4216 18.5940 17.0756 279.1150 81.6958 340.3657 338.1071 91.0890 7.2609 40.1892 11.1100 358.7066 344.9753 70.9729 32.7755 323.6598 352.8325 358.0030 36.9922 276.3913 338.1225 45.2287 6.8530 7.4034 357.1028 357.3726 20.3638 351.5763 0.6856 333.0201 35.6036 346.7724 285.0161 0.5761 53.4859 70.2752 300.6173 359.3276 342.5764 345.1177 
-12.0079 84.9797 132.3398 5.8894 339.1468 184.0733 8.3521 17.5237 345.0747 6.4806 1.6767 346.2535 27.3447 322.4064 21.5459 344.0630 9.9407 13.5808 340.6573 357.0121 17.4415 20.7317 15.4858 279.2025 82.9412 340.9293 339.4890 90.4210 5.6122 40.1583 10.1263 358.7984 344.6569 71.8171 33.3412 324.4598 353.2262 358.0032 36.3779 277.2524 337.2520 48.7255 7.1785 9.9157 358.7799 358.3563 18.3651 350.0362 350.0530 333.0720 30.8624 347.2315 286.3536 1.4118 50.4463 68.7294 303.8959 359.7462 342.2464 344.9220 
-11.7858 85.2858 130.0646 5.6575 338.6238 184.1653 8.6231 16.6146 344.6274 6.4567 2.5112 345.7334 27.8931 322.5930 22.1967 343.6624 9.4133 14.0668 341.0413 357.0959 17.2229 20.3420 14.8441 280.5101 84.0312 340.8294 339.0458 90.2720 5.2483 40.3396 9.4962 358.8405 344.8411 72.8243 33.9536 324.4626 352.9580 357.7153 36.8351 277.7706 337.0481 49.9428 6.5966 10.4570 1.0379 359.8766 17.7930 350.4325 345.4610 335.8082 28.6906 346.3389 286.9704 0.5484 46.3860 67.4346 308.2107 359.6410 341.9686 344.9799 
-11.6137 85.5864 127.8114 5.2474 338.3013 184.0757 8.7618 16.2252 344.3699 6.4717 2.9971 345.4441 28.4691 322.6945 22.8142 343.0158 8.9932 14.4798 341.1152 357.1395 17.1285 20.2005 14.5083 281.5222 84.7900 340.4618 338.5688 90.3504 4.8188 39.8251 9.2519 358.8412 345.1583 73.1270 33.8130 324.7173 352.8388 357.5755 37.4297 277.2108 336.8783 49.7739 6.2733 11.6763 0.9977 359.9173 16.4949 351.1336 344.8572 340.4773 29.2399 345.7224 288.0144 359.8157 42.2547 65.8993 312.5954 358.6747 341.5189 344.7990 
-11.4462 85.8117 125.4979 4.9022 338.0933 183.6901 8.8676 15.8961 344.3332 6.5513 3.5911 345.3681 28.7035 322.6684 23.3038 342.6798 8.7126 14.8950 340.8961 357.0928 17.0846 20.3682 14.4121 282.4776 85.2731 339.9954 338.0467 90.8470 5.0145 39.4017 9.0606 358.8451 345.7480 74.0348 33.6484 324.8129 351.8778 357.0445 37.9444 276.8387 336.7802 48.3590 5.5396 12.4273 1.8308 0.8362 16.1219 351.9667 344.1209 344.9904 29.1530 346.1086 289.4110 0.0304 38.1480 63.7800 316.6393 0.6135 340.5876 344.7793 
-11.3157 86.0247 123.3690 4.6417 337.5121 183.1713 9.0533 15.6974 344.5334 6.8433 3.5301 345.5809 28.3567 322.7304 23.4980 342.3025 8.4598 15.2416 340.5561 357.0543 16.9321 20.0578 14.8161 283.5730 85.2836 339.2617 336.8469 91.6225 6.0550 39.5470 8.7340 358.9069 346.0092 75.3639 34.3557 325.0557 350.3715 356.3169 38.1154 275.6376 336.6680 45.3860 5.2893 13.1320 0.9106 0.3673 15.1405 352.9528 345.8237 349.7719 31.1490 346.6922 290.5066 359.8902 33.7901 61.6300 320.2896 1.8109 340.4422 345.2183 
